<?xml version="1.0" encoding="UTF-8" standalone="no"?>
<svg xmlns:rdf="http://www.w3.org/1999/02/22-rdf-syntax-ns#" xmlns="http://www.w3.org/2000/svg" height="250" width="250" version="1.1" xmlns:cc="http://creativecommons.org/ns#" xmlns:dc="http://purl.org/dc/elements/1.1/">
 <metadata>
  <rdf:RDF>
   <cc:Work rdf:about="">
    <dc:format>image/svg+xml</dc:format>
    <dc:type rdf:resource="http://purl.org/dc/dcmitype/StillImage"/>
    <dc:title/>
   </cc:Work>
  </rdf:RDF>
 </metadata>
 <g transform="matrix(3.6764706,0,0,3.6764706,125,125)">
    <defs>
    <clipPath
       id="bits-clip">
      <path
         d="m 0,-31 c -17.120827,0 -31,13.879173 -31,31 0,17.120827 13.879173,31 31,31 C 17.120827,31 31,17.120827 31,0 31,-17.120827 17.120827,-31 0,-31 z m 0,8 c 12.702549,0 23,10.297451 23,23 0,12.702549 -10.297451,23 -23,23 -12.702549,0 -23,-10.297451 -23,-23 0,-12.702549 10.297451,-23 23,-23 z"
         style="fill:#ee5400;stroke:none" />
    </clipPath>
  </defs>
  <g>
     <circle cx="0" cy="0" r="33" fill="#ffffff"/>
    <path
       d="m 0,-34 c -18.777681,0 -34,15.222319 -34,34 0,18.777681 15.222319,34 34,34 C 18.777681,34 34,18.777681 34,0 34,-18.777681 18.777681,-34 0,-34 z m 0,2 c 17.673112,0 32,14.326888 32,32 0,17.673112 -14.326888,32 -32,32 -17.673112,0 -32,-14.326888 -32,-32 0,-17.673112 14.326888,-32 32,-32 z"
       id="circle-outline"
       style="fill:#ee5400" />
    <path
       d="m 0,-22 c -12.150264,0 -22,9.849736 -22,22 0,12.150264 9.849736,22 22,22 12.150264,0 22,-9.849736 22,-22 0,-12.150264 -9.849736,-22 -22,-22 z m -1.90625,3.34375 13.59375,16.625 L -0.40625,8.3125 7.375,18.65625 -11.34375,7.71875 l 8.5,-8.9375 -8.84375,-6.40625 9.78125,-11.03125 z"
       id="bolt-circle"
       style="fill:#ee5400;stroke:none" />
    <g
       clip-path="url(#bits-clip)"
       id="bits" style="fill:#ee5400">
<path class="paths" d="M 0,0 796.449572,75.286651,780.733410,174.514593 z" transform="translate(0.000000,0.000000)" /><path class="paths" d="M 0,0 734.203701,317.718313,688.593622,407.233133 z" transform="translate(0.000000,0.000000)" /><path class="paths" d="M 0,0 675.462340,428.661436,616.410594,509.939192 z" transform="translate(0.000000,0.000000)" /><path class="paths" d="M 0,0 600.088856,529.049492,529.049492,600.088856 z" transform="translate(0.000000,0.000000)" /><path class="paths" d="M 0,0 294.499642,743.821189,198.951910,774.866529 z" transform="translate(0.000000,0.000000)" /><path class="paths" d="M 0,0 -75.286651,796.449572,-174.514593,780.733410 z" transform="translate(0.000000,0.000000)" /><path class="paths" d="M 0,0 -428.661436,675.462340,-509.939192,616.410594 z" transform="translate(0.000000,0.000000)" /><path class="paths" d="M 0,0 -616.410594,509.939192,-675.462340,428.661436 z" transform="translate(0.000000,0.000000)" /><path class="paths" d="M 0,0 -688.593622,407.233133,-734.203701,317.718313 z" transform="translate(0.000000,0.000000)" /><path class="paths" d="M 0,0 -798.421383,50.232416,-798.421383,-50.232416 z" transform="translate(0.000000,0.000000)" /><path class="paths" d="M 0,0 -509.939192,-616.410594,-428.661436,-675.462340 z" transform="translate(0.000000,0.000000)" /><path class="paths" d="M 0,0 -407.233133,-688.593622,-317.718313,-734.203701 z" transform="translate(0.000000,0.000000)" /><path class="paths" d="M 0,0 -174.514593,-780.733410,-75.286651,-796.449572 z" transform="translate(0.000000,0.000000)" /><path class="paths" d="M 0,0 198.951910,-774.866529,294.499642,-743.821189 z" transform="translate(0.000000,0.000000)" /><path class="paths" d="M 0,0 428.661436,-675.462340,509.939192,-616.410594 z" transform="translate(0.000000,0.000000)" /><path class="paths" d="M 0,0 616.410594,-509.939192,675.462340,-428.661436 z" transform="translate(0.000000,0.000000)" /><path class="paths" d="M 0,0 688.593622,-407.233133,734.203701,-317.718313 z" transform="translate(0.000000,0.000000)" /><path class="paths" d="M 0,0 780.733410,-174.514593,796.449572,-75.286651 z" transform="translate(0.000000,0.000000)" />
    </g>
  </g>

 </g>
</svg>
